<mxfile host="app.diagrams.net" modified="2023-05-08T07:19:04.676Z" agent="Mozilla/5.0 (Macintosh; Intel Mac OS X 10.15; rv:109.0) Gecko/20100101 Firefox/112.0" etag="HYxLev5BT9lhYygk48zT" version="21.2.2" type="github">
  <diagram name="Page-1" id="HHfFjZHEkgntHL0ET5BJ">
    <mxGraphModel dx="1370" dy="797" grid="1" gridSize="10" guides="1" tooltips="1" connect="1" arrows="1" fold="1" page="1" pageScale="1" pageWidth="827" pageHeight="1169" math="0" shadow="0">
      <root>
        <mxCell id="0" />
        <mxCell id="1" parent="0" />
        <mxCell id="itA_Wpq4DEyvUuwsekM7-1" value="Amazon EKS" style="sketch=0;outlineConnect=0;fontColor=#232F3E;gradientColor=none;strokeColor=#ffffff;fillColor=#232F3E;dashed=0;verticalLabelPosition=middle;verticalAlign=bottom;align=center;html=1;whiteSpace=wrap;fontSize=10;fontStyle=1;spacing=3;shape=mxgraph.aws4.productIcon;prIcon=mxgraph.aws4.eks;" vertex="1" parent="1">
          <mxGeometry x="190" y="320" width="80" height="100" as="geometry" />
        </mxCell>
        <mxCell id="itA_Wpq4DEyvUuwsekM7-3" value="" style="sketch=0;html=1;dashed=0;whitespace=wrap;fillColor=#2875E2;strokeColor=#ffffff;points=[[0.005,0.63,0],[0.1,0.2,0],[0.9,0.2,0],[0.5,0,0],[0.995,0.63,0],[0.72,0.99,0],[0.5,1,0],[0.28,0.99,0]];verticalLabelPosition=bottom;align=center;verticalAlign=top;shape=mxgraph.kubernetes.icon;prIcon=pod" vertex="1" parent="1">
          <mxGeometry x="389" y="630" width="50" height="48" as="geometry" />
        </mxCell>
        <mxCell id="itA_Wpq4DEyvUuwsekM7-53" style="edgeStyle=orthogonalEdgeStyle;rounded=0;orthogonalLoop=1;jettySize=auto;html=1;exitX=0.5;exitY=0;exitDx=0;exitDy=0;" edge="1" parent="1" source="itA_Wpq4DEyvUuwsekM7-4">
          <mxGeometry relative="1" as="geometry">
            <mxPoint x="500" y="485" as="targetPoint" />
          </mxGeometry>
        </mxCell>
        <mxCell id="itA_Wpq4DEyvUuwsekM7-4" value="" style="rounded=1;whiteSpace=wrap;html=1;rotation=90;" vertex="1" parent="1">
          <mxGeometry x="270" y="420" width="280" height="130" as="geometry" />
        </mxCell>
        <mxCell id="itA_Wpq4DEyvUuwsekM7-5" value="" style="shape=image;html=1;verticalAlign=top;verticalLabelPosition=bottom;labelBackgroundColor=#ffffff;imageAspect=0;aspect=fixed;image=https://cdn1.iconfinder.com/data/icons/unicons-line-vol-5/24/react-128.png" vertex="1" parent="1">
          <mxGeometry x="372" y="420" width="68" height="68" as="geometry" />
        </mxCell>
        <mxCell id="itA_Wpq4DEyvUuwsekM7-19" value="" style="swimlane;startSize=0;" vertex="1" parent="1">
          <mxGeometry x="356" y="418" width="100" height="102" as="geometry" />
        </mxCell>
        <mxCell id="itA_Wpq4DEyvUuwsekM7-6" value="React App" style="text;html=1;align=center;verticalAlign=middle;whiteSpace=wrap;rounded=0;fontColor=#0000FF;fontStyle=1" vertex="1" parent="itA_Wpq4DEyvUuwsekM7-19">
          <mxGeometry x="13" y="72" width="74" height="30" as="geometry" />
        </mxCell>
        <mxCell id="itA_Wpq4DEyvUuwsekM7-24" value="" style="sketch=0;html=1;dashed=0;whitespace=wrap;fillColor=#2875E2;strokeColor=#ffffff;points=[[0.005,0.63,0],[0.1,0.2,0],[0.9,0.2,0],[0.5,0,0],[0.995,0.63,0],[0.72,0.99,0],[0.5,1,0],[0.28,0.99,0]];verticalLabelPosition=bottom;align=center;verticalAlign=top;shape=mxgraph.kubernetes.icon;prIcon=pod" vertex="1" parent="1">
          <mxGeometry x="549" y="632" width="50" height="48" as="geometry" />
        </mxCell>
        <mxCell id="itA_Wpq4DEyvUuwsekM7-25" value="" style="rounded=1;whiteSpace=wrap;html=1;rotation=90;" vertex="1" parent="1">
          <mxGeometry x="430" y="422" width="280" height="130" as="geometry" />
        </mxCell>
        <mxCell id="itA_Wpq4DEyvUuwsekM7-49" style="edgeStyle=orthogonalEdgeStyle;rounded=0;orthogonalLoop=1;jettySize=auto;html=1;entryX=0.446;entryY=1.015;entryDx=0;entryDy=0;entryPerimeter=0;" edge="1" parent="1" source="itA_Wpq4DEyvUuwsekM7-28" target="itA_Wpq4DEyvUuwsekM7-30">
          <mxGeometry relative="1" as="geometry" />
        </mxCell>
        <mxCell id="itA_Wpq4DEyvUuwsekM7-28" value="" style="swimlane;startSize=0;" vertex="1" parent="1">
          <mxGeometry x="516" y="420" width="100" height="100" as="geometry" />
        </mxCell>
        <mxCell id="itA_Wpq4DEyvUuwsekM7-34" value="" style="shape=image;html=1;verticalAlign=top;verticalLabelPosition=bottom;labelBackgroundColor=#ffffff;imageAspect=0;aspect=fixed;image=https://cdn0.iconfinder.com/data/icons/long-shadow-web-icons/512/nodejs-128.png" vertex="1" parent="itA_Wpq4DEyvUuwsekM7-28">
          <mxGeometry x="26" y="20" width="48" height="48" as="geometry" />
        </mxCell>
        <mxCell id="itA_Wpq4DEyvUuwsekM7-41" value="Users Api" style="text;html=1;align=center;verticalAlign=middle;whiteSpace=wrap;rounded=0;fontColor=#0000FF;fontStyle=1" vertex="1" parent="itA_Wpq4DEyvUuwsekM7-28">
          <mxGeometry x="13" y="70" width="74" height="30" as="geometry" />
        </mxCell>
        <mxCell id="itA_Wpq4DEyvUuwsekM7-29" value="" style="sketch=0;html=1;dashed=0;whitespace=wrap;fillColor=#2875E2;strokeColor=#ffffff;points=[[0.005,0.63,0],[0.1,0.2,0],[0.9,0.2,0],[0.5,0,0],[0.995,0.63,0],[0.72,0.99,0],[0.5,1,0],[0.28,0.99,0]];verticalLabelPosition=bottom;align=center;verticalAlign=top;shape=mxgraph.kubernetes.icon;prIcon=pod" vertex="1" parent="1">
          <mxGeometry x="709" y="630" width="50" height="48" as="geometry" />
        </mxCell>
        <mxCell id="itA_Wpq4DEyvUuwsekM7-62" style="edgeStyle=orthogonalEdgeStyle;rounded=0;orthogonalLoop=1;jettySize=auto;html=1;exitX=0.25;exitY=0;exitDx=0;exitDy=0;" edge="1" parent="1" source="itA_Wpq4DEyvUuwsekM7-30" target="itA_Wpq4DEyvUuwsekM7-60">
          <mxGeometry relative="1" as="geometry" />
        </mxCell>
        <mxCell id="itA_Wpq4DEyvUuwsekM7-30" value="" style="rounded=1;whiteSpace=wrap;html=1;rotation=90;" vertex="1" parent="1">
          <mxGeometry x="590" y="420" width="280" height="130" as="geometry" />
        </mxCell>
        <mxCell id="itA_Wpq4DEyvUuwsekM7-33" value="" style="swimlane;startSize=0;" vertex="1" parent="1">
          <mxGeometry x="676" y="418" width="100" height="100" as="geometry" />
        </mxCell>
        <mxCell id="itA_Wpq4DEyvUuwsekM7-40" value="" style="shape=image;html=1;verticalAlign=top;verticalLabelPosition=bottom;labelBackgroundColor=#ffffff;imageAspect=0;aspect=fixed;image=https://cdn0.iconfinder.com/data/icons/long-shadow-web-icons/512/nodejs-128.png" vertex="1" parent="1">
          <mxGeometry x="696" y="432" width="58" height="58" as="geometry" />
        </mxCell>
        <mxCell id="itA_Wpq4DEyvUuwsekM7-42" value="Auth Api" style="text;html=1;align=center;verticalAlign=middle;whiteSpace=wrap;rounded=0;fontColor=#0000FF;fontStyle=1" vertex="1" parent="1">
          <mxGeometry x="688" y="488" width="74" height="30" as="geometry" />
        </mxCell>
        <mxCell id="itA_Wpq4DEyvUuwsekM7-43" value="container" style="text;html=1;align=center;verticalAlign=middle;whiteSpace=wrap;rounded=0;fontColor=#0000FF;fontStyle=1" vertex="1" parent="1">
          <mxGeometry x="366" y="388" width="74" height="30" as="geometry" />
        </mxCell>
        <mxCell id="itA_Wpq4DEyvUuwsekM7-44" value="container" style="text;html=1;align=center;verticalAlign=middle;whiteSpace=wrap;rounded=0;fontColor=#0000FF;fontStyle=1" vertex="1" parent="1">
          <mxGeometry x="525" y="388" width="74" height="30" as="geometry" />
        </mxCell>
        <mxCell id="itA_Wpq4DEyvUuwsekM7-45" value="container" style="text;html=1;align=center;verticalAlign=middle;whiteSpace=wrap;rounded=0;fontColor=#0000FF;fontStyle=1" vertex="1" parent="1">
          <mxGeometry x="676" y="388" width="74" height="30" as="geometry" />
        </mxCell>
        <mxCell id="itA_Wpq4DEyvUuwsekM7-46" value="Pod" style="text;html=1;align=center;verticalAlign=middle;whiteSpace=wrap;rounded=0;fontColor=#ff316c;fontStyle=1" vertex="1" parent="1">
          <mxGeometry x="373" y="690" width="74" height="30" as="geometry" />
        </mxCell>
        <mxCell id="itA_Wpq4DEyvUuwsekM7-47" value="Pod" style="text;html=1;align=center;verticalAlign=middle;whiteSpace=wrap;rounded=0;fontColor=#ff316c;fontStyle=1" vertex="1" parent="1">
          <mxGeometry x="537" y="690" width="74" height="30" as="geometry" />
        </mxCell>
        <mxCell id="itA_Wpq4DEyvUuwsekM7-48" value="Pod" style="text;html=1;align=center;verticalAlign=middle;whiteSpace=wrap;rounded=0;fontColor=#ff316c;fontStyle=1" vertex="1" parent="1">
          <mxGeometry x="702" y="690" width="74" height="30" as="geometry" />
        </mxCell>
        <mxCell id="itA_Wpq4DEyvUuwsekM7-54" value="VPC" style="points=[[0,0],[0.25,0],[0.5,0],[0.75,0],[1,0],[1,0.25],[1,0.5],[1,0.75],[1,1],[0.75,1],[0.5,1],[0.25,1],[0,1],[0,0.75],[0,0.5],[0,0.25]];outlineConnect=0;gradientColor=none;html=1;whiteSpace=wrap;fontSize=12;fontStyle=0;container=1;pointerEvents=0;collapsible=0;recursiveResize=0;shape=mxgraph.aws4.group;grIcon=mxgraph.aws4.group_vpc;strokeColor=#248814;fillColor=none;verticalAlign=top;align=left;spacingLeft=30;fontColor=#AAB7B8;dashed=0;" vertex="1" parent="1">
          <mxGeometry x="120" y="259" width="791" height="488" as="geometry" />
        </mxCell>
        <mxCell id="itA_Wpq4DEyvUuwsekM7-55" value="" style="image;sketch=0;aspect=fixed;html=1;points=[];align=center;fontSize=12;image=img/lib/mscae/Docker.svg;" vertex="1" parent="itA_Wpq4DEyvUuwsekM7-54">
          <mxGeometry x="260" y="290" width="50" height="41" as="geometry" />
        </mxCell>
        <mxCell id="itA_Wpq4DEyvUuwsekM7-60" value="" style="dashed=0;outlineConnect=0;html=1;align=center;labelPosition=center;verticalLabelPosition=bottom;verticalAlign=top;shape=mxgraph.weblogos.mongodb" vertex="1" parent="itA_Wpq4DEyvUuwsekM7-54">
          <mxGeometry x="725.1999999999999" y="130" width="41.2" height="86.2" as="geometry" />
        </mxCell>
        <mxCell id="itA_Wpq4DEyvUuwsekM7-61" value="MongoDB" style="text;html=1;align=center;verticalAlign=middle;whiteSpace=wrap;rounded=0;fontColor=#14610C;fontStyle=1" vertex="1" parent="itA_Wpq4DEyvUuwsekM7-54">
          <mxGeometry x="707" y="229" width="74" height="30" as="geometry" />
        </mxCell>
        <mxCell id="itA_Wpq4DEyvUuwsekM7-64" value="" style="image;sketch=0;aspect=fixed;html=1;points=[];align=center;fontSize=12;image=img/lib/mscae/Docker.svg;" vertex="1" parent="itA_Wpq4DEyvUuwsekM7-54">
          <mxGeometry x="590" y="294" width="50" height="41" as="geometry" />
        </mxCell>
        <mxCell id="itA_Wpq4DEyvUuwsekM7-65" value="Nginx" style="text;html=1;strokeColor=#82b366;fillColor=#d5e8d4;align=center;verticalAlign=middle;whiteSpace=wrap;rounded=0;fontColor=#2E8528;" vertex="1" parent="itA_Wpq4DEyvUuwsekM7-54">
          <mxGeometry x="250" y="31" width="60" height="30" as="geometry" />
        </mxCell>
        <mxCell id="itA_Wpq4DEyvUuwsekM7-66" value="reverse proxy" style="text;html=1;align=center;verticalAlign=middle;whiteSpace=wrap;rounded=0;fontColor=#ff316c;fontStyle=1" vertex="1" parent="itA_Wpq4DEyvUuwsekM7-54">
          <mxGeometry x="320" y="31" width="100" height="30" as="geometry" />
        </mxCell>
        <mxCell id="itA_Wpq4DEyvUuwsekM7-63" value="" style="image;sketch=0;aspect=fixed;html=1;points=[];align=center;fontSize=12;image=img/lib/mscae/Docker.svg;" vertex="1" parent="1">
          <mxGeometry x="541" y="544" width="50" height="41" as="geometry" />
        </mxCell>
      </root>
    </mxGraphModel>
  </diagram>
</mxfile>
